<svg xmlns="http://www.w3.org/2000/svg" viewBox="0 0 300 300" class="icon"><path fill="none" class="logo-background-square" d="M0 0h300v300H0z"/><defs><linearGradient gradientTransform="rotate(25)" id="a" x1="0%" y1="0%" x2="100%" y2="0%"><stop offset="0%" stop-color="#0076DD"/><stop offset="100%" stop-color="#00CDE9"/></linearGradient></defs><g fill="url(#a)" transform="matrix(2.44444 0 0 2.44444 27.778 27.777)"><path d="M69.8 55.564c2.291 0 4.091 1.8 4.091 4.091 0 2.236-1.8 4.091-4.091 4.091H53.927c-2.236 0-4.091-1.855-4.091-4.091a4.086 4.086 0 014.091-4.091H69.8zm-27.055-8.455c1.582 1.582 1.582 4.2 0 5.782l-9.655 9.655c-1.582 1.582-4.145 1.582-5.782 0-1.582-1.582-1.582-4.2 0-5.782L34.073 50l-6.764-6.709c-1.582-1.636-1.582-4.2 0-5.782 1.636-1.636 4.2-1.636 5.782 0l9.654 9.6z"/><path d="M86.818 71.327V28.673a7.31 7.31 0 00-7.309-7.309H20.491c-4.036 0-7.255 3.273-7.309 7.309v42.655c.055 4.036 3.273 7.309 7.309 7.309h59.018a7.31 7.31 0 007.309-7.31zM95 28.673v42.655c0 8.564-6.927 15.491-15.491 15.491H20.491C11.927 86.818 5 79.891 5 71.327V28.673c0-8.564 6.927-15.491 15.491-15.491h59.018C88.073 13.182 95 20.109 95 28.673z"/></g></svg>